<?xml version="1.0" encoding="UTF-8" standalone="no"?>
<!DOCTYPE svg PUBLIC "-//W3C//DTD SVG 1.1//EN"
 "http://www.w3.org/Graphics/SVG/1.1/DTD/svg11.dtd">
<!-- Generated by graphviz version 2.40.1 (20161225.0304)
 -->
<!-- Title: Hellpoint breach map Pages: 1 -->
<svg width="3062pt" height="1098pt"
 viewBox="0.00 0.00 3062.00 1097.60" xmlns="http://www.w3.org/2000/svg" xmlns:xlink="http://www.w3.org/1999/xlink">
<g id="graph0" class="graph" transform="scale(1 1) rotate(0) translate(4 1093.6)">
<title>Hellpoint breach map</title>
<polygon fill="#ffffff" stroke="transparent" points="-4,4 -4,-1093.6 3058,-1093.6 3058,4 -4,4"/>
<g id="clust1" class="cluster">
<title>cluster_Arcology</title>
<polygon fill="none" stroke="#000000" points="58,-544 58,-1004.8 701,-1004.8 701,-544 58,-544"/>
<text text-anchor="middle" x="379.5" y="-988.2" font-family="Times,serif" font-size="14.00" fill="#000000">Arcology</text>
</g>
<g id="clust2" class="cluster">
<title>cluster_lift0</title>
<polygon fill="none" stroke="#000000" points="548,-823.2 548,-972 620,-972 620,-823.2 548,-823.2"/>
<text text-anchor="middle" x="584" y="-955.4" font-family="Times,serif" font-size="14.00" fill="#000000">Lift</text>
</g>
<g id="clust3" class="cluster">
<title>cluster_lift1</title>
<polygon fill="none" stroke="#000000" points="363,-552 363,-815.2 437,-815.2 437,-552 363,-552"/>
<text text-anchor="middle" x="400" y="-798.6" font-family="Times,serif" font-size="14.00" fill="#000000">Lift</text>
</g>
<g id="clust4" class="cluster">
<title>cluster_Alma Mater Atrium</title>
<polygon fill="none" stroke="#000000" points="999,-80 999,-661.6 1914,-661.6 1914,-80 999,-80"/>
<text text-anchor="middle" x="1456.5" y="-645" font-family="Times,serif" font-size="14.00" fill="#000000">Alma Mater Atrium</text>
</g>
<g id="clust5" class="cluster">
<title>cluster_lift3</title>
<polygon fill="none" stroke="#000000" points="1672,-224 1672,-503.2 1746,-503.2 1746,-224 1672,-224"/>
<text text-anchor="middle" x="1709" y="-486.6" font-family="Times,serif" font-size="14.00" fill="#000000">Lift</text>
</g>
<g id="clust6" class="cluster">
<title>cluster_lift6</title>
<polygon fill="none" stroke="#000000" points="1570,-426.4 1570,-628.8 1642,-628.8 1642,-426.4 1570,-426.4"/>
<text text-anchor="middle" x="1606" y="-612.2" font-family="Times,serif" font-size="14.00" fill="#000000">Lift</text>
</g>
<g id="clust7" class="cluster">
<title>cluster_Lift9</title>
<polygon fill="none" stroke="#000000" points="1207,-224 1207,-503.2 1279,-503.2 1279,-224 1207,-224"/>
<text text-anchor="middle" x="1243" y="-486.6" font-family="Times,serif" font-size="14.00" fill="#000000">Lift</text>
</g>
<g id="clust8" class="cluster">
<title>cluster_lift2</title>
<polygon fill="none" stroke="#000000" points="919,-308.8 919,-503.2 991,-503.2 991,-308.8 919,-308.8"/>
<text text-anchor="middle" x="955" y="-486.6" font-family="Times,serif" font-size="14.00" fill="#000000">Lift</text>
</g>
<g id="clust9" class="cluster">
<title>cluster_Arcology Underside</title>
<polygon fill="none" stroke="#000000" points="315,-152 315,-418.4 673,-418.4 673,-152 315,-152"/>
<text text-anchor="middle" x="494" y="-401.8" font-family="Times,serif" font-size="14.00" fill="#000000">Arcology Underside</text>
</g>
<g id="clust10" class="cluster">
<title>cluster_lift7</title>
<polygon fill="none" stroke="#000000" points="501,-224 501,-385.6 575,-385.6 575,-224 501,-224"/>
<text text-anchor="middle" x="538" y="-369" font-family="Times,serif" font-size="14.00" fill="#000000">Lift</text>
</g>
<g id="clust11" class="cluster">
<title>cluster_Alma Mater</title>
<polygon fill="none" stroke="#000000" points="1922,-80 1922,-536 2162,-536 2162,-80 1922,-80"/>
<text text-anchor="middle" x="2042" y="-519.4" font-family="Times,serif" font-size="14.00" fill="#000000">Alma Mater</text>
</g>
<g id="clust12" class="cluster">
<title>cluster_lift4</title>
<polygon fill="none" stroke="#000000" points="2082,-152 2082,-300.8 2154,-300.8 2154,-152 2082,-152"/>
<text text-anchor="middle" x="2118" y="-284.2" font-family="Times,serif" font-size="14.00" fill="#000000">Lift</text>
</g>
<g id="clust13" class="cluster">
<title>cluster_lift5</title>
<polygon fill="none" stroke="#000000" points="2043,-308.8 2043,-503.2 2115,-503.2 2115,-308.8 2043,-308.8"/>
<text text-anchor="middle" x="2079" y="-486.6" font-family="Times,serif" font-size="14.00" fill="#000000">Lift</text>
</g>
<g id="clust14" class="cluster">
<title>cluster_Sohn District</title>
<polygon fill="none" stroke="#000000" points="1998,-823.2 1998,-1081.6 2208,-1081.6 2208,-823.2 1998,-823.2"/>
<text text-anchor="middle" x="2103" y="-1065" font-family="Times,serif" font-size="14.00" fill="#000000">Sohn District</text>
</g>
<g id="clust15" class="cluster">
<title>cluster_Port Issoudun</title>
<polygon fill="none" stroke="#000000" points="1922,-552 1922,-815.2 2114,-815.2 2114,-552 1922,-552"/>
<text text-anchor="middle" x="2018" y="-798.6" font-family="Times,serif" font-size="14.00" fill="#000000">Port Issoudun</text>
</g>
<g id="clust16" class="cluster">
<title>cluster_Observatory</title>
<polygon fill="none" stroke="#000000" points="1326,-895.2 1326,-972 1458,-972 1458,-895.2 1326,-895.2"/>
<text text-anchor="middle" x="1392" y="-955.4" font-family="Times,serif" font-size="14.00" fill="#000000">Observatory</text>
</g>
<g id="clust17" class="cluster">
<title>cluster_Embassy</title>
<polygon fill="none" stroke="#000000" points="2170,-426.4 2170,-738.4 2358,-738.4 2358,-426.4 2170,-426.4"/>
<text text-anchor="middle" x="2264" y="-721.8" font-family="Times,serif" font-size="14.00" fill="#000000">Embassy</text>
</g>
<g id="clust18" class="cluster">
<title>cluster_Arisen Dominion</title>
<polygon fill="none" stroke="#000000" points="2366,-8 2366,-503.2 3046,-503.2 3046,-8 2366,-8"/>
<text text-anchor="middle" x="2706" y="-486.6" font-family="Times,serif" font-size="14.00" fill="#000000">Arisen Dominion</text>
</g>
<g id="clust19" class="cluster">
<title>cluster_lift8</title>
<polygon fill="none" stroke="#000000" points="2374,-80 2374,-385.6 2566,-385.6 2566,-80 2374,-80"/>
<text text-anchor="middle" x="2470" y="-369" font-family="Times,serif" font-size="14.00" fill="#000000">Lift</text>
</g>
<g id="clust20" class="cluster">
<title>cluster_Ikari Walkways</title>
<polygon fill="none" stroke="#000000" points="709,-426.4 709,-738.4 911,-738.4 911,-426.4 709,-426.4"/>
<text text-anchor="middle" x="810" y="-721.8" font-family="Times,serif" font-size="14.00" fill="#000000">Ikari Walkways</text>
</g>
<!-- Funicular -->
<g id="node1" class="node">
<title>Funicular</title>
<polygon fill="none" stroke="#000000" points="324,-867.2 256.106,-849.2 324,-831.2 391.894,-849.2 324,-867.2"/>
<text text-anchor="middle" x="324" y="-845" font-family="Times,serif" font-size="14.00" fill="#000000">Funicular</text>
</g>
<!-- Customs Bridge -->
<g id="node2" class="node">
<title>Customs Bridge</title>
<polygon fill="none" stroke="#000000" points="251,-782.4 147.0053,-764.4 251,-746.4 354.9947,-764.4 251,-782.4"/>
<text text-anchor="middle" x="251" y="-760.2" font-family="Times,serif" font-size="14.00" fill="#000000">Customs Bridge</text>
</g>
<!-- Funicular&#45;&#45;Customs Bridge -->
<g id="edge5" class="edge">
<title>Funicular&#45;&#45;Customs Bridge</title>
<path fill="none" stroke="#000000" d="M311.2844,-834.429C298.2125,-819.2441 277.9319,-795.6853 264.5597,-780.1515"/>
</g>
<!-- West Square -->
<g id="node4" class="node">
<title>West Square</title>
<polygon fill="none" stroke="#000000" points="151,-705.6 65.9963,-687.6 151,-669.6 236.0037,-687.6 151,-705.6"/>
<text text-anchor="middle" x="151" y="-683.4" font-family="Times,serif" font-size="14.00" fill="#000000">West Square</text>
</g>
<!-- Customs Bridge&#45;&#45;West Square -->
<g id="edge10" class="edge">
<title>Customs Bridge&#45;&#45;West Square</title>
<path fill="none" stroke="#000000" d="M231.719,-749.5922C213.7842,-735.8183 187.2402,-715.4325 169.5457,-701.8431"/>
</g>
<!-- l1f2 -->
<g id="node9" class="node">
<title>l1f2</title>
<text text-anchor="middle" x="401" y="-683.4" font-family="Times,serif" font-size="14.00" fill="#000000">Floor 2</text>
</g>
<!-- Customs Bridge&#45;&#45;l1f2 -->
<g id="edge6" class="edge">
<title>Customs Bridge&#45;&#45;l1f2</title>
<path fill="none" stroke="#000000" d="M307.7565,-756.1421C332.794,-751.65 358.8322,-745.5485 369,-738.4 380.4261,-730.3669 388.6581,-716.8249 393.9092,-705.7421"/>
</g>
<!-- East Square -->
<g id="node64" class="node">
<title>East Square</title>
<polygon fill="none" stroke="#000000" points="803,-705.6 722.5919,-687.6 803,-669.6 883.4081,-687.6 803,-705.6"/>
<text text-anchor="middle" x="803" y="-683.4" font-family="Times,serif" font-size="14.00" fill="#000000">East Square</text>
</g>
<!-- Customs Bridge&#45;&#45;East Square -->
<g id="edge58" class="edge">
<title>Customs Bridge&#45;&#45;East Square</title>
<path fill="none" stroke="#000000" d="M299.7317,-754.7688C318.2176,-751.5136 339.5078,-748.2403 359,-746.4 397.2845,-742.7855 667.7472,-747.939 705,-738.4 733.9613,-730.9841 764.0171,-713.7424 783.0791,-701.4038"/>
</g>
<!-- Celestial Workshop -->
<g id="node3" class="node">
<title>Celestial Workshop</title>
<polygon fill="none" stroke="#000000" points="569,-596 445.0992,-578 569,-560 692.9008,-578 569,-596"/>
<text text-anchor="middle" x="569" y="-573.8" font-family="Times,serif" font-size="14.00" fill="#000000">Celestial Workshop</text>
</g>
<!-- Condo Ruins -->
<g id="node5" class="node">
<title>Condo Ruins</title>
<polygon fill="none" stroke="#000000" points="153,-596 65.869,-578 153,-560 240.131,-578 153,-596"/>
<text text-anchor="middle" x="153" y="-573.8" font-family="Times,serif" font-size="14.00" fill="#000000">Condo Ruins</text>
</g>
<!-- West Square&#45;&#45;Condo Ruins -->
<g id="edge11" class="edge">
<title>West Square&#45;&#45;Condo Ruins</title>
<path fill="none" stroke="#000000" d="M151.3303,-669.5018C151.7008,-649.1947 152.2985,-616.4432 152.6693,-596.1251"/>
</g>
<!-- Corpse Pit -->
<g id="node43" class="node">
<title>Corpse Pit</title>
<polygon fill="none" stroke="#000000" points="2079,-1048.8 2006.2209,-1030.8 2079,-1012.8 2151.7791,-1030.8 2079,-1048.8"/>
<text text-anchor="middle" x="2079" y="-1026.6" font-family="Times,serif" font-size="14.00" fill="#000000">Corpse Pit</text>
</g>
<!-- Condo Ruins&#45;&#45;Corpse Pit -->
<g id="edge73" class="edge">
<title>Condo Ruins&#45;&#45;Corpse Pit</title>
<path fill="none" stroke="#000000" d="M130.0944,-591.4199C87.4125,-618.3488 0,-683.3882 0,-764.4 0,-849.2 0,-849.2 0,-849.2 0,-1100.6736 295.2667,-967.7764 544,-1004.8 689.2419,-1026.4191 1721.9282,-1030.0842 2006.5331,-1030.6856"/>
</g>
<!-- l0f1 -->
<g id="node6" class="node">
<title>l0f1</title>
<text text-anchor="middle" x="584" y="-917" font-family="Times,serif" font-size="14.00" fill="#000000">Floor 1</text>
</g>
<!-- l0f1&#45;&#45;Funicular -->
<g id="edge4" class="edge">
<title>l0f1&#45;&#45;Funicular</title>
<path fill="none" stroke="#000000" d="M555.182,-913.2196C506.6591,-899.7825 408.9175,-872.7156 357.4478,-858.4625"/>
</g>
<!-- l0f2 -->
<g id="node7" class="node">
<title>l0f2</title>
<text text-anchor="middle" x="584" y="-845" font-family="Times,serif" font-size="14.00" fill="#000000">Floor 2</text>
</g>
<!-- l0f1&#45;&#45;l0f2 -->
<g id="edge1" class="edge">
<title>l0f1&#45;&#45;l0f2</title>
<path fill="none" stroke="#000000" d="M584,-903.0314C584,-892.2 584,-878.4876 584,-867.6133"/>
</g>
<!-- l1f1 -->
<g id="node8" class="node">
<title>l1f1</title>
<text text-anchor="middle" x="401" y="-760.2" font-family="Times,serif" font-size="14.00" fill="#000000">Floor 1</text>
</g>
<!-- l1f1&#45;&#45;l1f2 -->
<g id="edge2" class="edge">
<title>l1f1&#45;&#45;l1f2</title>
<path fill="none" stroke="#000000" d="M401,-746.1995C401,-733.9569 401,-717.8851 401,-705.6699"/>
</g>
<!-- l1f2&#45;&#45;Celestial Workshop -->
<g id="edge7" class="edge">
<title>l1f2&#45;&#45;Celestial Workshop</title>
<path fill="none" stroke="#000000" d="M428.9795,-669.4244C433.0139,-666.8005 437.1139,-664.132 441,-661.6 477.9153,-637.5474 520.7764,-609.5366 546.3505,-592.8144"/>
</g>
<!-- l1f3 -->
<g id="node10" class="node">
<title>l1f3</title>
<text text-anchor="middle" x="399" y="-573.8" font-family="Times,serif" font-size="14.00" fill="#000000">Floor 3</text>
</g>
<!-- l1f2&#45;&#45;l1f3 -->
<g id="edge3" class="edge">
<title>l1f2&#45;&#45;l1f3</title>
<path fill="none" stroke="#000000" d="M400.6697,-669.5018C400.2992,-649.1947 399.7015,-616.4432 399.3307,-596.1251"/>
</g>
<!-- Cosmic theurgist -->
<g id="node11" class="node">
<title>Cosmic theurgist</title>
<ellipse fill="none" stroke="#000000" cx="569" cy="-687.6" rx="76.5029" ry="18"/>
<text text-anchor="middle" x="569" y="-683.4" font-family="Times,serif" font-size="14.00" fill="#000000">Cosmic theurgist</text>
</g>
<!-- Cosmic theurgist&#45;&#45;Celestial Workshop -->
<g id="edge8" class="edge">
<title>Cosmic theurgist&#45;&#45;Celestial Workshop</title>
<path fill="none" stroke="#000000" d="M569,-669.5018C569,-649.1947 569,-616.4432 569,-596.1251"/>
</g>
<!-- Eye codes -->
<g id="node12" class="node">
<title>Eye codes</title>
<ellipse fill="none" stroke="#000000" cx="304" cy="-687.6" rx="50.4027" ry="18"/>
<text text-anchor="middle" x="304" y="-683.4" font-family="Times,serif" font-size="14.00" fill="#000000">Eye codes</text>
</g>
<!-- Eye codes&#45;&#45;l1f3 -->
<g id="edge9" class="edge">
<title>Eye codes&#45;&#45;l1f3</title>
<path fill="none" stroke="#000000" d="M344.331,-676.6659C352.6218,-672.9482 360.724,-668.0403 367,-661.6 384.5708,-643.5693 392.718,-614.881 396.3321,-596.244"/>
</g>
<!-- Otsego Mansion -->
<g id="node13" class="node">
<title>Otsego Mansion</title>
<polygon fill="none" stroke="#000000" points="1395,-268 1289.4981,-250 1395,-232 1500.5019,-250 1395,-268"/>
<text text-anchor="middle" x="1395" y="-245.8" font-family="Times,serif" font-size="14.00" fill="#000000">Otsego Mansion</text>
</g>
<!-- Otsego Mansion&#45;&#45;Celestial Workshop -->
<g id="edge63" class="edge">
<title>Otsego Mansion&#45;&#45;Celestial Workshop</title>
<path fill="none" stroke="#000000" d="M1371.5244,-264.053C1349.5206,-276.3822 1315.269,-293.4559 1283,-300.8 1203.2424,-318.952 993.9179,-287.2888 915,-308.8 811.7938,-336.9316 788.5109,-359.5506 705,-426.4 652.5533,-468.3829 603.0426,-531.5551 580.9997,-561.3378"/>
</g>
<!-- Shanty Entrance -->
<g id="node14" class="node">
<title>Shanty Entrance</title>
<polygon fill="none" stroke="#000000" points="1725,-196 1619.5281,-178 1725,-160 1830.4719,-178 1725,-196"/>
<text text-anchor="middle" x="1725" y="-173.8" font-family="Times,serif" font-size="14.00" fill="#000000">Shanty Entrance</text>
</g>
<!-- Western Skybridge -->
<g id="node15" class="node">
<title>Western Skybridge</title>
<polygon fill="none" stroke="#000000" points="1762,-124 1641.1848,-106 1762,-88 1882.8152,-106 1762,-124"/>
<text text-anchor="middle" x="1762" y="-101.8" font-family="Times,serif" font-size="14.00" fill="#000000">Western Skybridge</text>
</g>
<!-- Shanty Entrance&#45;&#45;Western Skybridge -->
<g id="edge18" class="edge">
<title>Shanty Entrance&#45;&#45;Western Skybridge</title>
<path fill="none" stroke="#000000" d="M1733.5815,-161.3008C1739.4736,-149.8352 1747.2713,-134.6612 1753.2081,-123.1086"/>
</g>
<!-- l4f1 -->
<g id="node39" class="node">
<title>l4f1</title>
<text text-anchor="middle" x="2118" y="-245.8" font-family="Times,serif" font-size="14.00" fill="#000000">Floor 1</text>
</g>
<!-- Western Skybridge&#45;&#45;l4f1 -->
<g id="edge64" class="edge">
<title>Western Skybridge&#45;&#45;l4f1</title>
<path fill="none" stroke="#000000" d="M1786.6995,-120.558C1828.8981,-145.3863 1911.028,-193.5006 1918,-196 1989.2563,-221.5443 2016.998,-192.8761 2086,-224 2090.4371,-226.0014 2094.7748,-228.774 2098.7528,-231.7669"/>
</g>
<!-- Tenements -->
<g id="node16" class="node">
<title>Tenements</title>
<polygon fill="none" stroke="#000000" points="1830,-470.4 1754.4495,-452.4 1830,-434.4 1905.5505,-452.4 1830,-470.4"/>
<text text-anchor="middle" x="1830" y="-448.2" font-family="Times,serif" font-size="14.00" fill="#000000">Tenements</text>
</g>
<!-- Tram Station -->
<g id="node57" class="node">
<title>Tram Station</title>
<polygon fill="none" stroke="#000000" points="2661,-352.8 2573.9098,-334.8 2661,-316.8 2748.0902,-334.8 2661,-352.8"/>
<text text-anchor="middle" x="2661" y="-330.6" font-family="Times,serif" font-size="14.00" fill="#000000">Tram Station</text>
</g>
<!-- Tenements&#45;&#45;Tram Station -->
<g id="edge59" class="edge">
<title>Tenements&#45;&#45;Tram Station</title>
<path fill="none" stroke="#000000" d="M1875.9341,-445.2273C1918.1872,-438.9771 1982.644,-430.3183 2039,-426.4 2068.4323,-424.3537 2542.5909,-429.3174 2570,-418.4 2604.6792,-404.5868 2634.2561,-370.9298 2649.6457,-350.7855"/>
</g>
<!-- Union Park -->
<g id="node17" class="node">
<title>Union Park</title>
<polygon fill="none" stroke="#000000" points="1584,-352.8 1505.6173,-334.8 1584,-316.8 1662.3827,-334.8 1584,-352.8"/>
<text text-anchor="middle" x="1584" y="-330.6" font-family="Times,serif" font-size="14.00" fill="#000000">Union Park</text>
</g>
<!-- Union Park&#45;&#45;Otsego Mansion -->
<g id="edge24" class="edge">
<title>Union Park&#45;&#45;Otsego Mansion</title>
<path fill="none" stroke="#000000" d="M1557.3218,-322.8301C1522.2167,-307.0792 1460.7199,-279.487 1424.3376,-263.1631"/>
</g>
<!-- Athaneum -->
<g id="node18" class="node">
<title>Athaneum</title>
<polygon fill="none" stroke="#000000" points="1591,-268 1518.5077,-250 1591,-232 1663.4923,-250 1591,-268"/>
<text text-anchor="middle" x="1591" y="-245.8" font-family="Times,serif" font-size="14.00" fill="#000000">Athaneum</text>
</g>
<!-- Union Park&#45;&#45;Athaneum -->
<g id="edge25" class="edge">
<title>Union Park&#45;&#45;Athaneum</title>
<path fill="none" stroke="#000000" d="M1585.4845,-316.8161C1586.6805,-302.328 1588.3527,-282.0703 1589.5416,-267.6672"/>
</g>
<!-- Cabaret Cellar -->
<g id="node19" class="node">
<title>Cabaret Cellar</title>
<polygon fill="none" stroke="#000000" points="1102,-268 1007.2864,-250 1102,-232 1196.7136,-250 1102,-268"/>
<text text-anchor="middle" x="1102" y="-245.8" font-family="Times,serif" font-size="14.00" fill="#000000">Cabaret Cellar</text>
</g>
<!-- l3f1 -->
<g id="node20" class="node">
<title>l3f1</title>
<text text-anchor="middle" x="1708" y="-448.2" font-family="Times,serif" font-size="14.00" fill="#000000">Floor 1</text>
</g>
<!-- l3f2 -->
<g id="node21" class="node">
<title>l3f2</title>
<text text-anchor="middle" x="1709" y="-330.6" font-family="Times,serif" font-size="14.00" fill="#000000">Floor 2</text>
</g>
<!-- l3f1&#45;&#45;l3f2 -->
<g id="edge12" class="edge">
<title>l3f1&#45;&#45;l3f2</title>
<path fill="none" stroke="#000000" d="M1708.1541,-434.2827C1708.3414,-412.2479 1708.6559,-375.2628 1708.8441,-353.1316"/>
</g>
<!-- Central Mall -->
<g id="node30" class="node">
<title>Central Mall</title>
<polygon fill="none" stroke="#000000" points="408,-352.8 322.9745,-334.8 408,-316.8 493.0255,-334.8 408,-352.8"/>
<text text-anchor="middle" x="408" y="-330.6" font-family="Times,serif" font-size="14.00" fill="#000000">Central Mall</text>
</g>
<!-- l3f1&#45;&#45;Central Mall -->
<g id="edge62" class="edge">
<title>l3f1&#45;&#45;Central Mall</title>
<path fill="none" stroke="#000000" d="M1679.4183,-437.6738C1669.1573,-433.1322 1657.3203,-428.7186 1646,-426.4 1614.7317,-419.9958 526.6342,-430.2549 497,-418.4 462.7524,-404.6995 433.9444,-371.002 419.003,-350.8202"/>
</g>
<!-- l3f2&#45;&#45;Otsego Mansion -->
<g id="edge19" class="edge">
<title>l3f2&#45;&#45;Otsego Mansion</title>
<path fill="none" stroke="#000000" d="M1690.631,-316.6649C1686.4517,-313.5018 1681.8142,-310.6401 1677,-308.8 1642.2951,-295.5348 1546.159,-309.3395 1510,-300.8 1477.2871,-293.0744 1442.316,-276.2603 1419.6417,-264.088"/>
</g>
<!-- l3f3 -->
<g id="node22" class="node">
<title>l3f3</title>
<text text-anchor="middle" x="1710" y="-245.8" font-family="Times,serif" font-size="14.00" fill="#000000">Floor 3</text>
</g>
<!-- l3f2&#45;&#45;l3f3 -->
<g id="edge13" class="edge">
<title>l3f2&#45;&#45;l3f3</title>
<path fill="none" stroke="#000000" d="M1709.217,-316.3997C1709.3859,-302.0784 1709.619,-282.3105 1709.7869,-268.0731"/>
</g>
<!-- l3f3&#45;&#45;Shanty Entrance -->
<g id="edge17" class="edge">
<title>l3f3&#45;&#45;Shanty Entrance</title>
<path fill="none" stroke="#000000" d="M1713.7851,-231.8314C1716.1111,-220.6667 1719.0748,-206.441 1721.3713,-195.4177"/>
</g>
<!-- l6f2 -->
<g id="node23" class="node">
<title>l6f2</title>
<text text-anchor="middle" x="1606" y="-573.8" font-family="Times,serif" font-size="14.00" fill="#000000">Floor 2</text>
</g>
<!-- l6f2&#45;&#45;Tenements -->
<g id="edge20" class="edge">
<title>l6f2&#45;&#45;Tenements</title>
<path fill="none" stroke="#000000" d="M1634.5593,-574.1664C1664.96,-569.099 1713.6035,-558.095 1750,-536 1779.3644,-518.174 1805.1944,-486.8616 1819.1098,-468.0334"/>
</g>
<!-- l6f1 -->
<g id="node24" class="node">
<title>l6f1</title>
<text text-anchor="middle" x="1606" y="-448.2" font-family="Times,serif" font-size="14.00" fill="#000000">Floor 1</text>
</g>
<!-- l6f2&#45;&#45;l6f1 -->
<g id="edge14" class="edge">
<title>l6f2&#45;&#45;l6f1</title>
<path fill="none" stroke="#000000" d="M1606,-559.7367C1606,-535.9238 1606,-494.5091 1606,-470.6854"/>
</g>
<!-- l6f1&#45;&#45;Union Park -->
<g id="edge21" class="edge">
<title>l6f1&#45;&#45;Union Park</title>
<path fill="none" stroke="#000000" d="M1602.6107,-434.2827C1598.4403,-411.9902 1591.4073,-374.3956 1587.2853,-352.3612"/>
</g>
<!-- l9f1 -->
<g id="node25" class="node">
<title>l9f1</title>
<text text-anchor="middle" x="1243" y="-448.2" font-family="Times,serif" font-size="14.00" fill="#000000">Floor 1</text>
</g>
<!-- l9f2 -->
<g id="node26" class="node">
<title>l9f2</title>
<text text-anchor="middle" x="1243" y="-330.6" font-family="Times,serif" font-size="14.00" fill="#000000">Floor 2</text>
</g>
<!-- l9f1&#45;&#45;l9f2 -->
<g id="edge15" class="edge">
<title>l9f1&#45;&#45;l9f2</title>
<path fill="none" stroke="#000000" d="M1243,-434.2827C1243,-412.2479 1243,-375.2628 1243,-353.1316"/>
</g>
<!-- l9f2&#45;&#45;Otsego Mansion -->
<g id="edge22" class="edge">
<title>l9f2&#45;&#45;Otsego Mansion</title>
<path fill="none" stroke="#000000" d="M1263.8368,-316.7558C1267.4563,-313.949 1271.2611,-311.1911 1275,-308.8 1303.8289,-290.3636 1339.2739,-273.6522 1364.1405,-262.7984"/>
</g>
<!-- l9f2&#45;&#45;Cabaret Cellar -->
<g id="edge23" class="edge">
<title>l9f2&#45;&#45;Cabaret Cellar</title>
<path fill="none" stroke="#000000" d="M1214.4665,-317.6395C1188.0724,-301.7655 1149.3394,-278.4708 1124.9089,-263.7779"/>
</g>
<!-- l9f3 -->
<g id="node27" class="node">
<title>l9f3</title>
<text text-anchor="middle" x="1243" y="-245.8" font-family="Times,serif" font-size="14.00" fill="#000000">Floor 3</text>
</g>
<!-- l9f2&#45;&#45;l9f3 -->
<g id="edge16" class="edge">
<title>l9f2&#45;&#45;l9f3</title>
<path fill="none" stroke="#000000" d="M1243,-316.3997C1243,-302.0784 1243,-282.3105 1243,-268.0731"/>
</g>
<!-- l2f1 -->
<g id="node28" class="node">
<title>l2f1</title>
<text text-anchor="middle" x="955" y="-448.2" font-family="Times,serif" font-size="14.00" fill="#000000">Floor 1</text>
</g>
<!-- l2f2 -->
<g id="node29" class="node">
<title>l2f2</title>
<text text-anchor="middle" x="955" y="-330.6" font-family="Times,serif" font-size="14.00" fill="#000000">Floor 2</text>
</g>
<!-- l2f1&#45;&#45;l2f2 -->
<g id="edge26" class="edge">
<title>l2f1&#45;&#45;l2f2</title>
<path fill="none" stroke="#000000" d="M955,-434.2827C955,-412.2479 955,-375.2628 955,-353.1316"/>
</g>
<!-- l2f1&#45;&#45;Central Mall -->
<g id="edge60" class="edge">
<title>l2f1&#45;&#45;Central Mall</title>
<path fill="none" stroke="#000000" d="M931.9792,-434.388C926.6736,-431.1292 920.8594,-428.1981 915,-426.4 870.5911,-412.7718 540.024,-435.916 497,-418.4 462.8365,-404.4913 433.9982,-370.8686 419.0289,-350.7561"/>
</g>
<!-- l2f2&#45;&#45;Otsego Mansion -->
<g id="edge61" class="edge">
<title>l2f2&#45;&#45;Otsego Mansion</title>
<path fill="none" stroke="#000000" d="M983.6361,-331.7528C1029.8013,-326.8505 1123.5428,-316.9379 1203,-308.8 1238.5469,-305.1593 1248.4934,-310.081 1283,-300.8 1314.5461,-292.3153 1348.3903,-275.8271 1370.5177,-263.9327"/>
</g>
<!-- l7f2 -->
<g id="node34" class="node">
<title>l7f2</title>
<text text-anchor="middle" x="537" y="-245.8" font-family="Times,serif" font-size="14.00" fill="#000000">Floor 2</text>
</g>
<!-- Central Mall&#45;&#45;l7f2 -->
<g id="edge28" class="edge">
<title>Central Mall&#45;&#45;l7f2</title>
<path fill="none" stroke="#000000" d="M428.7261,-321.1754C450.6622,-306.7554 485.3883,-283.9277 509.5783,-268.0261"/>
</g>
<!-- SAS -->
<g id="node31" class="node">
<title>SAS</title>
<polygon fill="none" stroke="#000000" points="624,-268 583.1979,-250 624,-232 664.8021,-250 624,-268"/>
<text text-anchor="middle" x="624" y="-245.8" font-family="Times,serif" font-size="14.00" fill="#000000">SAS</text>
</g>
<!-- Outside Platform -->
<g id="node32" class="node">
<title>Outside Platform</title>
<polygon fill="none" stroke="#000000" points="494,-196 384.9153,-178 494,-160 603.0847,-178 494,-196"/>
<text text-anchor="middle" x="494" y="-173.8" font-family="Times,serif" font-size="14.00" fill="#000000">Outside Platform</text>
</g>
<!-- SAS&#45;&#45;Outside Platform -->
<g id="edge30" class="edge">
<title>SAS&#45;&#45;Outside Platform</title>
<path fill="none" stroke="#000000" d="M606.1095,-239.5104C597.8826,-234.7263 587.9771,-229.0212 579,-224 559.3768,-213.024 537.0077,-200.9352 520.1439,-191.9057"/>
</g>
<!-- l7f1 -->
<g id="node33" class="node">
<title>l7f1</title>
<text text-anchor="middle" x="539" y="-330.6" font-family="Times,serif" font-size="14.00" fill="#000000">Floor 1</text>
</g>
<!-- l7f1&#45;&#45;SAS -->
<g id="edge29" class="edge">
<title>l7f1&#45;&#45;SAS</title>
<path fill="none" stroke="#000000" d="M561.5005,-316.6356C567.345,-311.6604 573.5314,-306.1579 579,-300.8 591.2872,-288.7614 604.1958,-273.9313 613.0206,-263.4094"/>
</g>
<!-- l7f1&#45;&#45;l7f2 -->
<g id="edge27" class="edge">
<title>l7f1&#45;&#45;l7f2</title>
<path fill="none" stroke="#000000" d="M538.566,-316.3997C538.2283,-302.0784 537.762,-282.3105 537.4263,-268.0731"/>
</g>
<!-- Belvedere -->
<g id="node35" class="node">
<title>Belvedere</title>
<polygon fill="none" stroke="#000000" points="2001,-196 1930.0723,-178 2001,-160 2071.9277,-178 2001,-196"/>
<text text-anchor="middle" x="2001" y="-173.8" font-family="Times,serif" font-size="14.00" fill="#000000">Belvedere</text>
</g>
<!-- Offices -->
<g id="node36" class="node">
<title>Offices</title>
<polygon fill="none" stroke="#000000" points="2001,-268 1945.4174,-250 2001,-232 2056.5826,-250 2001,-268"/>
<text text-anchor="middle" x="2001" y="-245.8" font-family="Times,serif" font-size="14.00" fill="#000000">Offices</text>
</g>
<!-- Offices&#45;&#45;Tenements -->
<g id="edge65" class="edge">
<title>Offices&#45;&#45;Tenements</title>
<path fill="none" stroke="#000000" d="M1980.969,-261.7445C1963.7276,-272.5079 1938.8762,-289.6457 1921,-308.8 1883.1407,-349.3659 1851.8104,-407.7951 1837.8373,-435.9734"/>
</g>
<!-- Offices&#45;&#45;Belvedere -->
<g id="edge34" class="edge">
<title>Offices&#45;&#45;Belvedere</title>
<path fill="none" stroke="#000000" d="M2001,-231.8314C2001,-221 2001,-207.2876 2001,-196.4133"/>
</g>
<!-- Lobby -->
<g id="node37" class="node">
<title>Lobby</title>
<polygon fill="none" stroke="#000000" points="1981,-352.8 1929.9689,-334.8 1981,-316.8 2032.0311,-334.8 1981,-352.8"/>
<text text-anchor="middle" x="1981" y="-330.6" font-family="Times,serif" font-size="14.00" fill="#000000">Lobby</text>
</g>
<!-- Lobby&#45;&#45;Otsego Mansion -->
<g id="edge66" class="edge">
<title>Lobby&#45;&#45;Otsego Mansion</title>
<path fill="none" stroke="#000000" d="M1943.8758,-329.7092C1898.3073,-323.6716 1818.6276,-313.7982 1750,-308.8 1696.778,-304.9238 1562.0222,-312.687 1510,-300.8 1477.019,-293.2639 1441.8178,-276.2306 1419.1755,-263.9634"/>
</g>
<!-- Uthos&#39;s Agora -->
<g id="node38" class="node">
<title>Uthos&#39;s Agora</title>
<polygon fill="none" stroke="#000000" points="2058,-124 1962.2459,-106 2058,-88 2153.7541,-106 2058,-124"/>
<text text-anchor="middle" x="2058" y="-101.8" font-family="Times,serif" font-size="14.00" fill="#000000">Uthos&#39;s Agora</text>
</g>
<!-- l4f1&#45;&#45;Belvedere -->
<g id="edge33" class="edge">
<title>l4f1&#45;&#45;Belvedere</title>
<path fill="none" stroke="#000000" d="M2096.7288,-231.8121C2093.2255,-229.0827 2089.5708,-226.3866 2086,-224 2066.6091,-211.0397 2043.2163,-198.592 2025.884,-189.9211"/>
</g>
<!-- l4f2 -->
<g id="node40" class="node">
<title>l4f2</title>
<text text-anchor="middle" x="2118" y="-173.8" font-family="Times,serif" font-size="14.00" fill="#000000">Floor 2</text>
</g>
<!-- l4f1&#45;&#45;l4f2 -->
<g id="edge31" class="edge">
<title>l4f1&#45;&#45;l4f2</title>
<path fill="none" stroke="#000000" d="M2118,-231.8314C2118,-221 2118,-207.2876 2118,-196.4133"/>
</g>
<!-- l4f2&#45;&#45;Uthos&#39;s Agora -->
<g id="edge35" class="edge">
<title>l4f2&#45;&#45;Uthos&#39;s Agora</title>
<path fill="none" stroke="#000000" d="M2102.8595,-159.8314C2093.139,-148.1668 2080.6341,-133.1609 2071.2973,-121.9568"/>
</g>
<!-- l5f1 -->
<g id="node41" class="node">
<title>l5f1</title>
<text text-anchor="middle" x="2079" y="-448.2" font-family="Times,serif" font-size="14.00" fill="#000000">Floor 1</text>
</g>
<!-- l5f1&#45;&#45;Lobby -->
<g id="edge37" class="edge">
<title>l5f1&#45;&#45;Lobby</title>
<path fill="none" stroke="#000000" d="M2055.6397,-434.3044C2049.9275,-429.4153 2044.0196,-423.937 2039,-418.4 2019.0678,-396.413 2000.3181,-367.2804 1989.7829,-349.8499"/>
</g>
<!-- l5f2 -->
<g id="node42" class="node">
<title>l5f2</title>
<text text-anchor="middle" x="2079" y="-330.6" font-family="Times,serif" font-size="14.00" fill="#000000">Floor 2</text>
</g>
<!-- l5f1&#45;&#45;l5f2 -->
<g id="edge32" class="edge">
<title>l5f1&#45;&#45;l5f2</title>
<path fill="none" stroke="#000000" d="M2079,-434.2827C2079,-412.2479 2079,-375.2628 2079,-353.1316"/>
</g>
<!-- l5f2&#45;&#45;Offices -->
<g id="edge36" class="edge">
<title>l5f2&#45;&#45;Offices</title>
<path fill="none" stroke="#000000" d="M2062.0752,-316.3997C2047.5582,-300.6171 2026.9566,-278.2195 2013.7846,-263.8991"/>
</g>
<!-- Balcony -->
<g id="node44" class="node">
<title>Balcony</title>
<polygon fill="none" stroke="#000000" points="2073,-939.2 2011.7573,-921.2 2073,-903.2 2134.2427,-921.2 2073,-939.2"/>
<text text-anchor="middle" x="2073" y="-917" font-family="Times,serif" font-size="14.00" fill="#000000">Balcony</text>
</g>
<!-- Corpse Pit&#45;&#45;Balcony -->
<g id="edge39" class="edge">
<title>Corpse Pit&#45;&#45;Balcony</title>
<path fill="none" stroke="#000000" d="M2078.0092,-1012.7018C2076.8909,-992.2731 2075.0831,-959.2505 2073.9723,-938.9614"/>
</g>
<!-- Control Center -->
<g id="node45" class="node">
<title>Control Center</title>
<polygon fill="none" stroke="#000000" points="2103,-867.2 2005.6894,-849.2 2103,-831.2 2200.3106,-849.2 2103,-867.2"/>
<text text-anchor="middle" x="2103" y="-845" font-family="Times,serif" font-size="14.00" fill="#000000">Control Center</text>
</g>
<!-- Corpse Pit&#45;&#45;Control Center -->
<g id="edge38" class="edge">
<title>Corpse Pit&#45;&#45;Control Center</title>
<path fill="none" stroke="#000000" d="M2119.2319,-1022.6786C2128.5502,-1018.8293 2137.3746,-1013.1572 2143,-1004.8 2170.2003,-964.3907 2160.0626,-940.825 2143,-895.2 2138.5515,-883.3048 2129.4844,-872.4539 2121.1061,-864.282"/>
</g>
<!-- Balcony&#45;&#45;Control Center -->
<g id="edge40" class="edge">
<title>Balcony&#45;&#45;Control Center</title>
<path fill="none" stroke="#000000" d="M2079.8075,-904.8621C2084.648,-893.2448 2091.1304,-877.6869 2096.0113,-865.9729"/>
</g>
<!-- Control Center&#45;&#45;l1f1 -->
<g id="edge72" class="edge">
<title>Control Center&#45;&#45;l1f1</title>
<path fill="none" stroke="#000000" d="M2026.2838,-845.3777C1723.8045,-830.3071 620.9693,-775.3597 429.4481,-765.8174"/>
</g>
<!-- Docking Bay -->
<g id="node46" class="node">
<title>Docking Bay</title>
<polygon fill="none" stroke="#000000" points="2018,-782.4 1929.8971,-764.4 2018,-746.4 2106.1029,-764.4 2018,-782.4"/>
<text text-anchor="middle" x="2018" y="-760.2" font-family="Times,serif" font-size="14.00" fill="#000000">Docking Bay</text>
</g>
<!-- Control Center&#45;&#45;Docking Bay -->
<g id="edge71" class="edge">
<title>Control Center&#45;&#45;Docking Bay</title>
<path fill="none" stroke="#000000" d="M2087.4097,-833.6464C2071.9771,-818.2501 2048.5027,-794.8309 2033.2055,-779.5697"/>
</g>
<!-- Silos -->
<g id="node47" class="node">
<title>Silos</title>
<polygon fill="none" stroke="#000000" points="2023,-705.6 1980.1396,-687.6 2023,-669.6 2065.8604,-687.6 2023,-705.6"/>
<text text-anchor="middle" x="2023" y="-683.4" font-family="Times,serif" font-size="14.00" fill="#000000">Silos</text>
</g>
<!-- Docking Bay&#45;&#45;Silos -->
<g id="edge41" class="edge">
<title>Docking Bay&#45;&#45;Silos</title>
<path fill="none" stroke="#000000" d="M2019.1597,-746.5875C2019.9674,-734.1803 2021.0402,-717.7019 2021.8466,-705.3159"/>
</g>
<!-- Ozy&#39;s Pit -->
<g id="node48" class="node">
<title>Ozy&#39;s Pit</title>
<polygon fill="none" stroke="#000000" points="2033,-596 1966.3753,-578 2033,-560 2099.6247,-578 2033,-596"/>
<text text-anchor="middle" x="2033" y="-573.8" font-family="Times,serif" font-size="14.00" fill="#000000">Ozy&#39;s Pit</text>
</g>
<!-- Silos&#45;&#45;Ozy&#39;s Pit -->
<g id="edge42" class="edge">
<title>Silos&#45;&#45;Ozy&#39;s Pit</title>
<path fill="none" stroke="#000000" d="M2024.6067,-669.9909C2026.4617,-649.6593 2029.4967,-616.3958 2031.3641,-595.9295"/>
</g>
<!-- Pond -->
<g id="node51" class="node">
<title>Pond</title>
<polygon fill="none" stroke="#000000" points="2264,-470.4 2220.1285,-452.4 2264,-434.4 2307.8715,-452.4 2264,-470.4"/>
<text text-anchor="middle" x="2264" y="-448.2" font-family="Times,serif" font-size="14.00" fill="#000000">Pond</text>
</g>
<!-- Ozy&#39;s Pit&#45;&#45;Pond -->
<g id="edge77" class="edge">
<title>Ozy&#39;s Pit&#45;&#45;Pond</title>
<path fill="none" stroke="#000000" d="M2057.6917,-566.4944C2075.0053,-558.2926 2098.6068,-546.8422 2119,-536 2165.4395,-511.3101 2218.6952,-479.7422 2245.9137,-463.3645"/>
</g>
<!-- Podium -->
<g id="node49" class="node">
<title>Podium</title>
<polygon fill="none" stroke="#000000" points="1392,-939.2 1333.791,-921.2 1392,-903.2 1450.209,-921.2 1392,-939.2"/>
<text text-anchor="middle" x="1392" y="-917" font-family="Times,serif" font-size="14.00" fill="#000000">Podium</text>
</g>
<!-- Podium&#45;&#45;l0f2 -->
<g id="edge69" class="edge">
<title>Podium&#45;&#45;l0f2</title>
<path fill="none" stroke="#000000" d="M1342.3155,-918.4781C1229.0411,-912.0137 943.047,-894.2287 705,-867.2 673.3462,-863.6059 637.2447,-858.0438 612.775,-854.0539"/>
</g>
<!-- Podium&#45;&#45;Outside Platform -->
<g id="edge70" class="edge">
<title>Podium&#45;&#45;Outside Platform</title>
<path fill="none" stroke="#000000" d="M1354.1927,-914.8358C1242.787,-896.4154 905.9049,-843.1005 624,-823.2 608.2044,-822.0849 65.4914,-826.0945 54,-815.2 -22.6792,-742.5039 38,-683.6618 38,-578 38,-578 38,-578 38,-334.8 38,-252.2348 308.7191,-203.8145 432.975,-185.9388"/>
</g>
<!-- Podium&#45;&#45;Docking Bay -->
<g id="edge68" class="edge">
<title>Podium&#45;&#45;Docking Bay</title>
<path fill="none" stroke="#000000" d="M1424.3383,-913.0999C1529.7423,-886.6984 1863.1931,-803.1759 1978.3948,-774.3203"/>
</g>
<!-- Great Halls -->
<g id="node50" class="node">
<title>Great Halls</title>
<polygon fill="none" stroke="#000000" points="2256,-705.6 2177.6584,-687.6 2256,-669.6 2334.3416,-687.6 2256,-705.6"/>
<text text-anchor="middle" x="2256" y="-683.4" font-family="Times,serif" font-size="14.00" fill="#000000">Great Halls</text>
</g>
<!-- Podium&#45;&#45;Great Halls -->
<g id="edge67" class="edge">
<title>Podium&#45;&#45;Great Halls</title>
<path fill="none" stroke="#000000" d="M1429.8833,-914.8132C1553.0664,-894.0761 1937.5782,-829.5973 1994,-823.2 2021.437,-820.0891 2092.6247,-826.0887 2118,-815.2 2175.2739,-790.6234 2223.9029,-731.6904 2244.905,-703.3479"/>
</g>
<!-- Admission -->
<g id="node52" class="node">
<title>Admission</title>
<polygon fill="none" stroke="#000000" points="2253,-596 2178.4211,-578 2253,-560 2327.5789,-578 2253,-596"/>
<text text-anchor="middle" x="2253" y="-573.8" font-family="Times,serif" font-size="14.00" fill="#000000">Admission</text>
</g>
<!-- Great Halls&#45;&#45;Admission -->
<g id="edge45" class="edge">
<title>Great Halls&#45;&#45;Admission</title>
<path fill="none" stroke="#000000" d="M2255.5046,-669.5018C2254.9488,-649.1947 2254.0523,-616.4432 2253.4961,-596.1251"/>
</g>
<!-- j0 -->
<g id="node53" class="node">
<title>j0</title>
<ellipse fill="#000000" stroke="#000000" cx="2348" cy="-578" rx="1.8" ry="1.8"/>
</g>
<!-- Great Halls&#45;&#45;j0 -->
<g id="edge43" class="edge">
<title>Great Halls&#45;&#45;j0</title>
<path fill="none" stroke="#000000" d="M2296.8113,-678.795C2314.0688,-674.234 2331.4637,-668.2331 2337,-661.6 2358.3872,-635.9757 2350.4038,-589.6821 2348.4016,-579.8619"/>
</g>
<!-- j0&#45;&#45;Pond -->
<g id="edge44" class="edge">
<title>j0&#45;&#45;Pond</title>
<path fill="none" stroke="#000000" d="M2347.6289,-576.0613C2346.5515,-570.7084 2343.106,-555.3684 2337,-544 2320.3539,-513.0076 2292.8684,-482.0715 2276.7955,-465.2692"/>
</g>
<!-- Solar Promenade -->
<g id="node54" class="node">
<title>Solar Promenade</title>
<polygon fill="none" stroke="#000000" points="2820,-470.4 2710.9371,-452.4 2820,-434.4 2929.0629,-452.4 2820,-470.4"/>
<text text-anchor="middle" x="2820" y="-448.2" font-family="Times,serif" font-size="14.00" fill="#000000">Solar Promenade</text>
</g>
<!-- j0&#45;&#45;Solar Promenade -->
<g id="edge57" class="edge">
<title>j0&#45;&#45;Solar Promenade</title>
<path fill="none" stroke="#000000" d="M2349.9772,-577.8762C2368.2482,-576.6957 2509.4548,-566.7847 2619,-536 2683.5823,-517.8509 2755.2373,-484.679 2793.1094,-466.0419"/>
</g>
<!-- Hall of Remembrance -->
<g id="node55" class="node">
<title>Hall of Remembrance</title>
<polygon fill="none" stroke="#000000" points="2902,-352.8 2765.6124,-334.8 2902,-316.8 3038.3876,-334.8 2902,-352.8"/>
<text text-anchor="middle" x="2902" y="-330.6" font-family="Times,serif" font-size="14.00" fill="#000000">Hall of Remembrance</text>
</g>
<!-- Solar Promenade&#45;&#45;Hall of Remembrance -->
<g id="edge49" class="edge">
<title>Solar Promenade&#45;&#45;Hall of Remembrance</title>
<path fill="none" stroke="#000000" d="M2831.4017,-436.0482C2846.9801,-413.7066 2874.7655,-373.8583 2890.4307,-351.392"/>
</g>
<!-- Grand Gallery -->
<g id="node56" class="node">
<title>Grand Gallery</title>
<polygon fill="none" stroke="#000000" points="2668,-268 2573.8079,-250 2668,-232 2762.1921,-250 2668,-268"/>
<text text-anchor="middle" x="2668" y="-245.8" font-family="Times,serif" font-size="14.00" fill="#000000">Grand Gallery</text>
</g>
<!-- Hall of Remembrance&#45;&#45;Grand Gallery -->
<g id="edge50" class="edge">
<title>Hall of Remembrance&#45;&#45;Grand Gallery</title>
<path fill="none" stroke="#000000" d="M2865.4375,-321.55C2820.1914,-305.1531 2743.8386,-277.4834 2700.5367,-261.7911"/>
</g>
<!-- l8f3 -->
<g id="node62" class="node">
<title>l8f3</title>
<text text-anchor="middle" x="2498" y="-173.8" font-family="Times,serif" font-size="14.00" fill="#000000">Grand Gallery</text>
</g>
<!-- Grand Gallery&#45;&#45;l8f3 -->
<g id="edge52" class="edge">
<title>Grand Gallery&#45;&#45;l8f3</title>
<path fill="none" stroke="#000000" d="M2638.3883,-237.4586C2611.3716,-226.0162 2571.1321,-208.9736 2540.6513,-196.0641"/>
</g>
<!-- Tram Station&#45;&#45;Grand Gallery -->
<g id="edge51" class="edge">
<title>Tram Station&#45;&#45;Grand Gallery</title>
<path fill="none" stroke="#000000" d="M2662.4845,-316.8161C2663.6724,-302.4253 2665.3303,-282.342 2666.5176,-267.958"/>
</g>
<!-- Mine Mausoleum -->
<g id="node58" class="node">
<title>Mine Mausoleum</title>
<polygon fill="none" stroke="#000000" points="2498,-470.4 2385.8436,-452.4 2498,-434.4 2610.1564,-452.4 2498,-470.4"/>
<text text-anchor="middle" x="2498" y="-448.2" font-family="Times,serif" font-size="14.00" fill="#000000">Mine Mausoleum</text>
</g>
<!-- l8f1 -->
<g id="node60" class="node">
<title>l8f1</title>
<text text-anchor="middle" x="2498" y="-330.6" font-family="Times,serif" font-size="14.00" fill="#000000">Mausoleum</text>
</g>
<!-- Mine Mausoleum&#45;&#45;l8f1 -->
<g id="edge53" class="edge">
<title>Mine Mausoleum&#45;&#45;l8f1</title>
<path fill="none" stroke="#000000" d="M2498,-434.2827C2498,-412.2479 2498,-375.2628 2498,-353.1316"/>
</g>
<!-- Undisturbed Defas Nemundis -->
<g id="node59" class="node">
<title>Undisturbed Defas Nemundis</title>
<polygon fill="none" stroke="#000000" points="2552,-52 2374.1466,-34 2552,-16 2729.8534,-34 2552,-52"/>
<text text-anchor="middle" x="2552" y="-29.8" font-family="Times,serif" font-size="14.00" fill="#000000">Undisturbed Defas Nemundis</text>
</g>
<!-- l8f2 -->
<g id="node61" class="node">
<title>l8f2</title>
<text text-anchor="middle" x="2498" y="-245.8" font-family="Times,serif" font-size="14.00" fill="#000000">Promenade</text>
</g>
<!-- l8f1&#45;&#45;l8f2 -->
<g id="edge46" class="edge">
<title>l8f1&#45;&#45;l8f2</title>
<path fill="none" stroke="#000000" d="M2498,-316.3997C2498,-302.0784 2498,-282.3105 2498,-268.0731"/>
</g>
<!-- l8f2&#45;&#45;l8f3 -->
<g id="edge47" class="edge">
<title>l8f2&#45;&#45;l8f3</title>
<path fill="none" stroke="#000000" d="M2498,-231.8314C2498,-221 2498,-207.2876 2498,-196.4133"/>
</g>
<!-- l8f4 -->
<g id="node63" class="node">
<title>l8f4</title>
<text text-anchor="middle" x="2470" y="-101.8" font-family="Times,serif" font-size="14.00" fill="#000000">Ministry Audience Chamber</text>
</g>
<!-- l8f3&#45;&#45;l8f4 -->
<g id="edge48" class="edge">
<title>l8f3&#45;&#45;l8f4</title>
<path fill="none" stroke="#000000" d="M2490.9344,-159.8314C2486.7222,-149 2481.3896,-135.2876 2477.1607,-124.4133"/>
</g>
<!-- l8f4&#45;&#45;Undisturbed Defas Nemundis -->
<g id="edge54" class="edge">
<title>l8f4&#45;&#45;Undisturbed Defas Nemundis</title>
<path fill="none" stroke="#000000" d="M2490.6921,-87.8314C2503.8818,-76.2502 2520.8228,-61.3751 2533.5529,-50.1975"/>
</g>
<!-- Crashed Tram -->
<g id="node65" class="node">
<title>Crashed Tram</title>
<polygon fill="none" stroke="#000000" points="810,-596 716.81,-578 810,-560 903.19,-578 810,-596"/>
<text text-anchor="middle" x="810" y="-573.8" font-family="Times,serif" font-size="14.00" fill="#000000">Crashed Tram</text>
</g>
<!-- East Square&#45;&#45;Crashed Tram -->
<g id="edge55" class="edge">
<title>East Square&#45;&#45;Crashed Tram</title>
<path fill="none" stroke="#000000" d="M804.1559,-669.5018C805.4529,-649.1947 807.5447,-616.4432 808.8424,-596.1251"/>
</g>
<!-- Underail -->
<g id="node66" class="node">
<title>Underail</title>
<polygon fill="none" stroke="#000000" points="825,-470.4 761.7287,-452.4 825,-434.4 888.2713,-452.4 825,-470.4"/>
<text text-anchor="middle" x="825" y="-448.2" font-family="Times,serif" font-size="14.00" fill="#000000">Underail</text>
</g>
<!-- Crashed Tram&#45;&#45;Underail -->
<g id="edge56" class="edge">
<title>Crashed Tram&#45;&#45;Underail</title>
<path fill="none" stroke="#000000" d="M812.1173,-560.271C814.9761,-536.3333 820.0402,-493.93 822.8935,-470.0388"/>
</g>
<!-- Underail&#45;&#45;Cabaret Cellar -->
<g id="edge76" class="edge">
<title>Underail&#45;&#45;Cabaret Cellar</title>
<path fill="none" stroke="#000000" d="M830.8592,-435.973C842.3182,-406.1828 870.5293,-343.1573 915,-308.8 952.8384,-279.5667 1005.4699,-264.7103 1045.2594,-257.2552"/>
</g>
<!-- Underail&#45;&#45;l9f2 -->
<g id="edge75" class="edge">
<title>Underail&#45;&#45;l9f2</title>
<path fill="none" stroke="#000000" d="M854.2623,-442.4847C871.7069,-436.9426 894.3989,-430.3716 915,-426.4 950.0868,-419.6357 960.0701,-425.9328 995,-418.4 1076.7236,-400.776 1169.0867,-365.2986 1214.5765,-346.7367"/>
</g>
<!-- Underail&#45;&#45;Central Mall -->
<g id="edge74" class="edge">
<title>Underail&#45;&#45;Central Mall</title>
<path fill="none" stroke="#000000" d="M767.1549,-450.8281C686.1881,-447.8812 543.7317,-439.759 497,-418.4 463.6446,-403.1547 434.7265,-370.3359 419.4813,-350.6575"/>
</g>
</g>
</svg>
